<?xml version="1.0" encoding="UTF-8"?>
<svg id="Ebene_2" data-name="Ebene 2" xmlns="http://www.w3.org/2000/svg" xmlns:xlink="http://www.w3.org/1999/xlink" viewBox="0 0 56.69 56.69">
  <defs>
    <style>
      .cls-1 {
        fill: url(#Unbenannter_Verlauf);
      }

      .cls-2 {
        fill: #fff;
      }
    </style>
    <linearGradient id="Unbenannter_Verlauf" data-name="Unbenannter Verlauf" x1="-3.39" y1="9.23" x2="60.08" y2="45.86" gradientTransform="translate(0 55.89) scale(1 -1)" gradientUnits="userSpaceOnUse">
      <stop offset="0" stop-color="#003837"/>
      <stop offset="1" stop-color="#065a51"/>
    </linearGradient>
  </defs>
  <g id="favicon_mummert_media" data-name="favicon mummert media">
    <rect class="cls-1" width="56.69" height="56.69" rx="5.67" ry="5.67"/>
    <path id="m" class="cls-2" d="M42.1,22.13c-.81-.92-2.01-1.38-3.6-1.38-1.19,0-2.13.22-2.83.67-.7.44-1.32,1.01-1.85,1.7h-.05c-.32-.74-.83-1.33-1.54-1.74s-1.54-.62-2.5-.62-1.82.2-2.55.61-1.33.97-1.81,1.67h-.05v-1.97h-4.28v10.83h-11.94v3.15h16.32v-7.66c0-.6.09-1.12.28-1.57.19-.44.46-.78.84-1.02.37-.24.81-.36,1.3-.36.74,0,1.29.24,1.63.73s.52,1.19.52,2.11v7.76h4.36v-7.74c0-.57.09-1.07.28-1.51s.46-.78.84-1.01c.37-.23.81-.34,1.3-.34.76,0,1.32.24,1.66.73s.52,1.19.52,2.11v7.76h4.36v-9.28c0-1.51-.4-2.72-1.21-3.64h0Z"/>
  </g>
</svg>